<mxfile host="drawio-plugin" modified="2024-03-19T12:44:49.906Z" agent="5.0 (Windows NT 10.0; Win64; x64) AppleWebKit/537.36 (KHTML, like Gecko) Chrome/111.0.0.0 Safari/537.36" etag="ocA3fp-ePPLS-3pOikHt" version="20.5.3" type="embed"><diagram id="23iRSUPoRavnBvh4doch" name="Page-1"><mxGraphModel dx="75" dy="105" grid="1" gridSize="10" guides="1" tooltips="1" connect="1" arrows="1" fold="1" page="1" pageScale="1" pageWidth="827" pageHeight="1169" math="0" shadow="0"><root><mxCell id="0"/><mxCell id="1" parent="0"/><mxCell id="2" value="&lt;p style=&quot;margin:0px;margin-top:4px;text-align:center;&quot;&gt;&lt;i&gt;&amp;lt;&amp;lt;Interface&amp;gt;&amp;gt;&lt;/i&gt;&lt;br&gt;&lt;b&gt;Command&lt;/b&gt;&lt;/p&gt;&lt;hr size=&quot;1&quot;&gt;&lt;p style=&quot;margin:0px;margin-left:4px;&quot;&gt;&lt;span style=&quot;background-color: initial;&quot;&gt;+ execute()&lt;/span&gt;&lt;/p&gt;" style="verticalAlign=top;align=left;overflow=fill;fontSize=12;fontFamily=Helvetica;html=1;" parent="1" vertex="1"><mxGeometry x="360" y="80" width="100" height="70" as="geometry"/></mxCell><mxCell id="3" value="RemoteControl" style="swimlane;fontStyle=1;align=center;verticalAlign=top;childLayout=stackLayout;horizontal=1;startSize=34;horizontalStack=0;resizeParent=1;resizeParentMax=0;resizeLast=0;collapsible=1;marginBottom=0;" parent="1" vertex="1"><mxGeometry x="160" y="360" width="140" height="30" as="geometry"/></mxCell><mxCell id="7" value="TouchControl" style="swimlane;fontStyle=1;align=center;verticalAlign=top;childLayout=stackLayout;horizontal=1;startSize=52;horizontalStack=0;resizeParent=1;resizeParentMax=0;resizeLast=0;collapsible=1;marginBottom=0;" parent="1" vertex="1"><mxGeometry x="160" y="440" width="140" height="30" as="geometry"/></mxCell><mxCell id="11" value="PlayerControl" style="swimlane;fontStyle=1;align=center;verticalAlign=top;childLayout=stackLayout;horizontal=1;startSize=26;horizontalStack=0;resizeParent=1;resizeParentMax=0;resizeLast=0;collapsible=1;marginBottom=0;" parent="1" vertex="1"><mxGeometry x="120" y="160" width="180" height="150" as="geometry"/></mxCell><mxCell id="12" value="# playCommand: Command&#10;# pauseCommand: Command&#10;# stopCommand: Command" style="text;strokeColor=none;fillColor=none;align=left;verticalAlign=top;spacingLeft=4;spacingRight=4;overflow=hidden;rotatable=0;points=[[0,0.5],[1,0.5]];portConstraint=eastwest;" parent="11" vertex="1"><mxGeometry y="26" width="180" height="54" as="geometry"/></mxCell><mxCell id="13" value="" style="line;strokeWidth=1;fillColor=none;align=left;verticalAlign=middle;spacingTop=-1;spacingLeft=3;spacingRight=3;rotatable=0;labelPosition=right;points=[];portConstraint=eastwest;strokeColor=inherit;" parent="11" vertex="1"><mxGeometry y="80" width="180" height="8" as="geometry"/></mxCell><mxCell id="14" value="+ play()&#10;+ pause()&#10;+ stope()" style="text;strokeColor=none;fillColor=none;align=left;verticalAlign=top;spacingLeft=4;spacingRight=4;overflow=hidden;rotatable=0;points=[[0,0.5],[1,0.5]];portConstraint=eastwest;" parent="11" vertex="1"><mxGeometry y="88" width="180" height="62" as="geometry"/></mxCell><mxCell id="15" value="AbstractCommand" style="swimlane;fontStyle=3;align=center;verticalAlign=top;childLayout=stackLayout;horizontal=1;startSize=26;horizontalStack=0;resizeParent=1;resizeParentMax=0;resizeLast=0;collapsible=1;marginBottom=0;" parent="1" vertex="1"><mxGeometry x="440" y="200" width="200" height="130" as="geometry"/></mxCell><mxCell id="16" value="- player: Player" style="text;strokeColor=none;fillColor=none;align=left;verticalAlign=top;spacingLeft=4;spacingRight=4;overflow=hidden;rotatable=0;points=[[0,0.5],[1,0.5]];portConstraint=eastwest;" parent="15" vertex="1"><mxGeometry y="26" width="200" height="26" as="geometry"/></mxCell><mxCell id="17" value="" style="line;strokeWidth=1;fillColor=none;align=left;verticalAlign=middle;spacingTop=-1;spacingLeft=3;spacingRight=3;rotatable=0;labelPosition=right;points=[];portConstraint=eastwest;strokeColor=inherit;" parent="15" vertex="1"><mxGeometry y="52" width="200" height="8" as="geometry"/></mxCell><mxCell id="18" value="# AbstractCommand(player: Player) &#10;: AbstractCommand&#10;&#10;+ execute()" style="text;strokeColor=none;fillColor=none;align=left;verticalAlign=top;spacingLeft=4;spacingRight=4;overflow=hidden;rotatable=0;points=[[0,0.5],[1,0.5]];portConstraint=eastwest;" parent="15" vertex="1"><mxGeometry y="60" width="200" height="70" as="geometry"/></mxCell><mxCell id="19" value="Player" style="swimlane;fontStyle=1;align=center;verticalAlign=top;childLayout=stackLayout;horizontal=1;startSize=26;horizontalStack=0;resizeParent=1;resizeParentMax=0;resizeLast=0;collapsible=1;marginBottom=0;" parent="1" vertex="1"><mxGeometry x="680" y="80" width="80" height="80" as="geometry"/></mxCell><mxCell id="22" value="+ play()&#10;+ pause()&#10;+ stop()" style="text;strokeColor=none;fillColor=none;align=left;verticalAlign=top;spacingLeft=4;spacingRight=4;overflow=hidden;rotatable=0;points=[[0,0.5],[1,0.5]];portConstraint=eastwest;" parent="19" vertex="1"><mxGeometry y="26" width="80" height="54" as="geometry"/></mxCell><mxCell id="24" value="PlayCommand" style="swimlane;fontStyle=1;align=center;verticalAlign=top;childLayout=stackLayout;horizontal=1;startSize=26;horizontalStack=0;resizeParent=1;resizeParentMax=0;resizeLast=0;collapsible=1;marginBottom=0;" parent="1" vertex="1"><mxGeometry x="440" y="397" width="200" height="96" as="geometry"/></mxCell><mxCell id="27" value="&lt;span style=&quot;&quot;&gt;&amp;nbsp;+ PlayCommand(player: Player)&amp;nbsp;&lt;br&gt;&amp;nbsp; : PlayCommand&lt;br&gt;&lt;br&gt;&amp;nbsp;+ execute()&lt;br&gt;&lt;/span&gt;" style="rounded=0;whiteSpace=wrap;html=1;align=left;" parent="24" vertex="1"><mxGeometry y="26" width="200" height="70" as="geometry"/></mxCell><mxCell id="28" value="PauseCommand" style="swimlane;fontStyle=1;align=center;verticalAlign=top;childLayout=stackLayout;horizontal=1;startSize=26;horizontalStack=0;resizeParent=1;resizeParentMax=0;resizeLast=0;collapsible=1;marginBottom=0;" parent="1" vertex="1"><mxGeometry x="440" y="537" width="200" height="96" as="geometry"/></mxCell><mxCell id="30" value="&amp;nbsp;+&amp;nbsp;&lt;span style=&quot;text-align: center;&quot;&gt;Pause&lt;/span&gt;Command(player: Player)&amp;nbsp;&lt;br&gt;&amp;nbsp; :&amp;nbsp;&lt;span style=&quot;text-align: center;&quot;&gt;Pause&lt;/span&gt;Command&lt;br&gt;&lt;br&gt;&amp;nbsp;+ execute()" style="rounded=0;whiteSpace=wrap;html=1;align=left;" parent="28" vertex="1"><mxGeometry y="26" width="200" height="70" as="geometry"/></mxCell><mxCell id="31" value="StopCommand" style="swimlane;fontStyle=1;align=center;verticalAlign=top;childLayout=stackLayout;horizontal=1;startSize=26;horizontalStack=0;resizeParent=1;resizeParentMax=0;resizeLast=0;collapsible=1;marginBottom=0;" parent="1" vertex="1"><mxGeometry x="440" y="677" width="200" height="96" as="geometry"/></mxCell><mxCell id="33" value="&lt;span style=&quot;&quot;&gt;&amp;nbsp;+&amp;nbsp;&lt;/span&gt;&lt;span style=&quot;text-align: center;&quot;&gt;Stop&lt;/span&gt;&lt;span style=&quot;&quot;&gt;Command(player: Player)&amp;nbsp;&lt;br&gt;&amp;nbsp; :&amp;nbsp;&lt;/span&gt;&lt;span style=&quot;text-align: center;&quot;&gt;Stop&lt;/span&gt;&lt;span style=&quot;&quot;&gt;Command&lt;br&gt;&lt;br&gt;&amp;nbsp;+ execute()&lt;br&gt;&lt;/span&gt;" style="rounded=0;whiteSpace=wrap;html=1;align=left;" parent="31" vertex="1"><mxGeometry y="26" width="200" height="70" as="geometry"/></mxCell><mxCell id="37" value="Use" style="endArrow=open;endSize=12;dashed=1;html=1;rounded=0;entryX=0.497;entryY=0.998;entryDx=0;entryDy=0;entryPerimeter=0;" parent="1" target="22" edge="1"><mxGeometry width="160" relative="1" as="geometry"><mxPoint x="640" y="230" as="sourcePoint"/><mxPoint x="500" y="430" as="targetPoint"/><Array as="points"><mxPoint x="720" y="230"/></Array></mxGeometry></mxCell><mxCell id="38" value="" style="endArrow=block;dashed=1;endFill=0;endSize=12;html=1;rounded=0;entryX=1.003;entryY=0.288;entryDx=0;entryDy=0;entryPerimeter=0;exitX=0.5;exitY=0;exitDx=0;exitDy=0;" parent="1" source="15" target="2" edge="1"><mxGeometry width="160" relative="1" as="geometry"><mxPoint x="590" y="200" as="sourcePoint"/><mxPoint x="610" y="230" as="targetPoint"/><Array as="points"><mxPoint x="540" y="100"/></Array></mxGeometry></mxCell><mxCell id="39" value="Extends" style="endArrow=block;endSize=16;endFill=0;html=1;rounded=0;entryX=1.002;entryY=0.421;entryDx=0;entryDy=0;entryPerimeter=0;" parent="1" target="18" edge="1"><mxGeometry width="160" relative="1" as="geometry"><mxPoint x="720" y="710" as="sourcePoint"/><mxPoint x="710" y="300" as="targetPoint"/><Array as="points"><mxPoint x="720" y="290"/></Array></mxGeometry></mxCell><mxCell id="40" value="Extends" style="endArrow=block;endSize=16;endFill=0;html=1;rounded=0;exitX=1;exitY=0;exitDx=0;exitDy=0;" parent="1" edge="1"><mxGeometry width="160" relative="1" as="geometry"><mxPoint x="639.9999999999995" y="563" as="sourcePoint"/><mxPoint x="720" y="563" as="targetPoint"/></mxGeometry></mxCell><mxCell id="41" value="Extends" style="endArrow=block;endSize=16;endFill=0;html=1;rounded=0;exitX=1;exitY=0;exitDx=0;exitDy=0;" parent="1" edge="1"><mxGeometry width="160" relative="1" as="geometry"><mxPoint x="639.9999999999995" y="703" as="sourcePoint"/><mxPoint x="720" y="703" as="targetPoint"/></mxGeometry></mxCell><mxCell id="43" value="Extends" style="endArrow=block;endSize=16;endFill=0;html=1;rounded=0;exitX=1;exitY=0;exitDx=0;exitDy=0;" parent="1" edge="1"><mxGeometry width="160" relative="1" as="geometry"><mxPoint x="639.9999999999995" y="423" as="sourcePoint"/><mxPoint x="720" y="423" as="targetPoint"/></mxGeometry></mxCell><mxCell id="44" value="0..*" style="endArrow=open;html=1;endSize=12;startArrow=diamondThin;startSize=14;startFill=0;edgeStyle=orthogonalEdgeStyle;align=left;verticalAlign=bottom;rounded=0;entryX=0;entryY=0.25;entryDx=0;entryDy=0;" parent="1" source="12" target="2" edge="1"><mxGeometry x="-0.9323" y="13" relative="1" as="geometry"><mxPoint x="280" y="250" as="sourcePoint"/><mxPoint x="440" y="250" as="targetPoint"/><mxPoint as="offset"/></mxGeometry></mxCell><mxCell id="45" value="Extends" style="endArrow=block;endSize=16;endFill=0;html=1;rounded=0;entryX=0;entryY=0.5;entryDx=0;entryDy=0;" parent="1" target="12" edge="1"><mxGeometry width="160" relative="1" as="geometry"><mxPoint x="80" y="460" as="sourcePoint"/><mxPoint x="400" y="360" as="targetPoint"/><Array as="points"><mxPoint x="80" y="213"/></Array></mxGeometry></mxCell><mxCell id="46" value="Extends" style="endArrow=block;endSize=16;endFill=0;html=1;rounded=0;exitX=0;exitY=0.5;exitDx=0;exitDy=0;" parent="1" source="3" edge="1"><mxGeometry y="-15" width="160" relative="1" as="geometry"><mxPoint x="90" y="360" as="sourcePoint"/><mxPoint x="80" y="375" as="targetPoint"/><mxPoint as="offset"/></mxGeometry></mxCell><mxCell id="47" value="Extends" style="endArrow=block;endSize=16;endFill=0;html=1;rounded=0;exitX=0;exitY=0.5;exitDx=0;exitDy=0;" parent="1" source="7" edge="1"><mxGeometry y="-15" width="160" relative="1" as="geometry"><mxPoint x="90" y="360" as="sourcePoint"/><mxPoint x="80" y="455" as="targetPoint"/><mxPoint as="offset"/></mxGeometry></mxCell></root></mxGraphModel></diagram></mxfile>